<svg xmlns="http://www.w3.org/2000/svg" width="18" height="18" viewBox="0 0 18 18">
  <g id="Group_20796" data-name="Group 20796" opacity="0.5">
    <path id="Path_244" data-name="Path 244" d="M0,0H18V18H0Z" fill="none"/>
    <path id="Path_245" data-name="Path 245" d="M13.25,2.5h3a.75.75,0,0,1,.75.75v12a.75.75,0,0,1-.75.75H2.75A.75.75,0,0,1,2,15.25v-12a.75.75,0,0,1,.75-.75h3V1h1.5V2.5h4.5V1h1.5ZM11.75,4H7.25V5.5H5.75V4H3.5V7h12V4H13.25V5.5h-1.5ZM15.5,8.5H3.5v6h12Z" transform="translate(-0.5 -0.25)" fill="#423f3f"/>
  </g>
</svg>
