<svg id="Group_12" data-name="Group 12" xmlns="http://www.w3.org/2000/svg" width="20.014" height="20.014" viewBox="0 0 20.014 20.014">
  <path id="Path_220" data-name="Path 220" d="M0,0H20.014V20.014H0Z" fill="none"/>
  <path id="Path_221" data-name="Path 221" d="M10.339,2a5,5,0,0,1,5,5v.834h3.336V9.505h-.973l-.631,7.574a.834.834,0,0,1-.831.765H4.435A.834.834,0,0,1,3.6,17.08L2.972,9.505H2V7.837H5.336V7a5,5,0,0,1,5-5Zm5.692,7.505H4.646L5.2,16.177H15.475Zm-4.858,1.668v3.336H9.505V11.173Zm-3.336,0v3.336H6.17V11.173Zm6.671,0v3.336H12.841V11.173Zm-4.17-7.505A3.336,3.336,0,0,0,7.008,6.837L7,7v.834h6.671V7a3.336,3.336,0,0,0-3.169-3.331Z" transform="translate(-0.332 -0.332)" fill="#423f3f"/>
</svg>
