<svg id="Group_10158" data-name="Group 10158" xmlns="http://www.w3.org/2000/svg" width="16" height="16" viewBox="0 0 16 16">
  <path id="Path_7609" data-name="Path 7609" d="M0,0H16V16H0Z" fill="none"/>
  <path id="Path_7610" data-name="Path 7610" d="M3,4.33A1.33,1.33,0,0,1,4.33,3h9.34A1.33,1.33,0,0,1,15,4.33v9.34A1.33,1.33,0,0,1,13.67,15H4.33A1.33,1.33,0,0,1,3,13.67Zm1.333,0v9.333h9.333V4.333ZM6.315,13.12a6.655,6.655,0,0,1-1.167-.652,4.668,4.668,0,0,1,7.773-.1,6.663,6.663,0,0,1-1.149.683,3.335,3.335,0,0,0-5.456.072ZM9,9.667a2.333,2.333,0,1,1,2.333-2.333A2.333,2.333,0,0,1,9,9.667ZM9,8.333a1,1,0,1,0-1-1A1,1,0,0,0,9,8.333Z" transform="translate(-1 -1)" fill="#423f3f"/>
</svg>
