<svg xmlns="http://www.w3.org/2000/svg" width="40" height="40" viewBox="0 0 40 40">
  <g id="Group_11048" data-name="Group 11048" transform="translate(-92 -6581)">
    <g id="Group_11046" data-name="Group 11046" transform="translate(92 6581)">
      <rect id="Rectangle_4263" data-name="Rectangle 4263" width="40" height="40" rx="20" fill="#fff"/>
    </g>
    <g id="Group_11047" data-name="Group 11047" transform="translate(103 6592)">
      <path id="Shape" d="M9,18c-2.442,0-2.76-.01-3.711-.054A6.67,6.67,0,0,1,3.1,17.528a4.4,4.4,0,0,1-1.594-1.038A4.408,4.408,0,0,1,.473,14.894,6.67,6.67,0,0,1,.054,12.71C.01,11.759,0,11.442,0,9,0,6.574.01,6.254.054,5.289A6.626,6.626,0,0,1,.472,3.1,4.422,4.422,0,0,1,1.511,1.511,4.4,4.4,0,0,1,3.105.473,6.637,6.637,0,0,1,5.29.054C6.241.01,6.558,0,9,0s2.759.01,3.71.054a6.669,6.669,0,0,1,2.186.418,4.4,4.4,0,0,1,1.593,1.038A4.422,4.422,0,0,1,17.527,3.1a6.73,6.73,0,0,1,.418,2.184C17.989,6.25,18,6.57,18,9s-.01,2.749-.054,3.711a6.729,6.729,0,0,1-.418,2.184A4.611,4.611,0,0,1,14.9,17.528a6.681,6.681,0,0,1-2.186.418C11.759,17.99,11.441,18,9,18ZM8.194,1.619c-1.691,0-2,.013-2.829.051a4.948,4.948,0,0,0-1.671.311,2.789,2.789,0,0,0-1.035.673,2.789,2.789,0,0,0-.673,1.035,4.968,4.968,0,0,0-.31,1.671C1.632,6.291,1.623,6.573,1.623,9s.009,2.706.052,3.637a4.968,4.968,0,0,0,.31,1.671,2.791,2.791,0,0,0,.673,1.035,2.789,2.789,0,0,0,1.035.673,5,5,0,0,0,1.671.31c.977.043,1.266.053,3.637.053s2.659-.009,3.637-.053a4.968,4.968,0,0,0,1.671-.31A2.983,2.983,0,0,0,16.016,14.3a4.994,4.994,0,0,0,.31-1.671c.043-.977.053-1.266.053-3.635s-.009-2.659-.053-3.635a4.968,4.968,0,0,0-.31-1.671,2.8,2.8,0,0,0-.673-1.035,2.781,2.781,0,0,0-1.035-.673,4.968,4.968,0,0,0-1.671-.31c-.931-.043-1.213-.052-3.637-.052H8.194Zm.807,12A4.621,4.621,0,1,1,13.622,9,4.627,4.627,0,0,1,9,13.621ZM9,6a3,3,0,1,0,3,3A3,3,0,0,0,9,6Zm4.8-.725a1.08,1.08,0,1,1,1.08-1.08A1.081,1.081,0,0,1,13.8,5.276Z" transform="translate(0 0)" fill="#423f3f"/>
    </g>
  </g>
</svg>
