<svg xmlns="http://www.w3.org/2000/svg" width="200" height="243.711" viewBox="0 0 200 243.711">
  <g id="_08_review" data-name=" 08 review" transform="translate(-65.194 60.854)">
    <g id="Group_10661" data-name="Group 10661" transform="translate(65.194 -27.664)">
      <g id="Path_211" data-name="Path 211" transform="matrix(0.999, 0.035, -0.035, 0.999, 78.714, 132.075)">
        <path id="Path_7691" data-name="Path 7691" d="M.664,4.039A.664.664,0,0,1,.641,2.711L80.144,0a.656.656,0,0,1,.686.641.664.664,0,0,1-.641.687L.687,4.038Z" transform="translate(0 0)" fill="#423f3f"/>
      </g>
      <g id="Path_212" data-name="Path 212" transform="translate(6.977 43.785)">
        <path id="Path_7692" data-name="Path 7692" d="M128.274,211.987a2.5,2.5,0,0,1-1.22-4.676l23.472-13.122c.751-1.5,6.008-11.941,13.144-24.839,7.09-12.815,17.538-30.745,27.051-43.393,3.163-4.2,6.684-6.17,10.467-5.839,8.06.7,15.214,11.579,19.8,20.578,8.479,16.648,17.932,36.137,18.027,36.332a.664.664,0,0,1-1.2.579c-.094-.195-9.542-19.672-18.015-36.308-6.262-12.3-12.913-19.35-18.728-19.858-3.3-.289-6.421,1.5-9.29,5.315-9.465,12.585-19.878,30.456-26.947,43.232-7.664,13.853-13.157,24.867-13.212,24.977a.663.663,0,0,1-.271.284L127.7,208.471a1.169,1.169,0,0,0,.668,2.185c8.358-.7,20.164-1.563,28.951-1.725a.664.664,0,0,1,.025,1.328c-8.752.161-20.527,1.025-28.865,1.72C128.412,211.984,128.342,211.987,128.274,211.987Z" transform="translate(-125.775 -120.082)" fill="#423f3f"/>
      </g>
      <g id="Path_213" data-name="Path 213" transform="translate(70.517 83.798)">
        <path id="Path_7693" data-name="Path 7693" d="M332.085,258.759a.665.665,0,0,1-.644-.505c-1.561-6.326-2.6-11.893-3.1-14.783a81.327,81.327,0,0,1-10,14.755.664.664,0,1,1-1.02-.851c7.745-9.286,10.689-16.289,10.718-16.359a.664.664,0,0,1,1.27.154c.011.075,1.166,7.618,3.423,16.765a.664.664,0,0,1-.486.8A.679.679,0,0,1,332.085,258.759Z" transform="translate(-317.165 -240.607)" fill="#423f3f"/>
      </g>
      <g id="Path_214" data-name="Path 214" transform="translate(120.905 6.902)">
        <path id="Path_7694" data-name="Path 7694" d="M476.324,36.251a8.7,8.7,0,0,1-4.432-1.088c-2.292-1.365-3.3-3.86-2.845-7.027.941-6.756,5.827-13.254,9.754-18.474l.307-.408a.664.664,0,0,1,1.062.8l-.307.408c-3.835,5.1-8.607,11.443-9.5,17.863-.382,2.642.382,4.612,2.209,5.7,2.7,1.609,7.247,1.059,10.348-1.252a.664.664,0,1,1,.793,1.065A12.673,12.673,0,0,1,476.324,36.251Z" transform="translate(-468.94 -8.988)" fill="#423f3f"/>
      </g>
      <g id="Path_215" data-name="Path 215" transform="translate(126.06 0)">
        <path id="Path_7695" data-name="Path 7695" d="M494.656,8.8c-.106-2.133-.535-4.029-2.342-5.02-4.97-2.717-10.041-8.018-6.849-12.832,1.967-2.966,6.049-3.4,9.113-1.944,4.082,1.944,3.678,6.275,6.129,8.8,2.194,2.266,7.636,4.084,7,12.6-.473,6.373-8.275,14.631-12.294,5.853a6.874,6.874,0,0,1-.48-1.557l1.179-.272,1.379-1.069.719-1.642-.163-1.55L496.875,9l-1.7-.256Z" transform="translate(-484.468 11.802)" fill="#423f3f" fill-rule="evenodd"/>
      </g>
      <g id="Path_216" data-name="Path 216" transform="translate(134.371 19.873)">
        <path id="Path_7696" data-name="Path 7696" d="M511.469,55.351a5.072,5.072,0,0,1-1.5-.236.664.664,0,0,1,.393-1.269,2.885,2.885,0,0,0,3.341-.92,2.509,2.509,0,0,0,.345-2.728c-.471-.747-1.537-.989-3-.679a.664.664,0,1,1-.275-1.3c2.758-.585,3.938.545,4.4,1.271a3.812,3.812,0,0,1-.415,4.244A4.052,4.052,0,0,1,511.469,55.351Z" transform="translate(-509.5 -48.058)" fill="#423f3f"/>
      </g>
      <g id="Path_217" data-name="Path 217" transform="translate(2.967 100.37)">
        <path id="Path_7697" data-name="Path 7697" d="M116.906,400.676a3.237,3.237,0,0,1-2.039-5.716l23.288-19.5c.357-2.316,3.177-20.34,7.251-38.735,5.87-26.507,11.462-41.144,16.62-43.5,9.989-4.558,41.32-2.2,56.376-1.067,1.406.106,2.659.2,3.727.276a.664.664,0,0,1-.094,1.325c-1.069-.076-2.325-.171-3.733-.277-14.946-1.125-46.047-3.466-55.725.95-5.927,2.713-11.9,24.655-15.875,42.584-4.333,19.563-7.243,38.7-7.272,38.9a.663.663,0,0,1-.23.41l-23.48,19.662a1.9,1.9,0,0,0,1.69,3.306l27.162-6.872a7.133,7.133,0,0,0,5.359-7.241l-.372-7.646a.664.664,0,0,1,.148-.452c.137-.169,13.828-17.07,19.442-30.487A155.6,155.6,0,0,0,177.37,318.7a.664.664,0,0,1,.806-.529c.393.093,39.54,9.213,62.062,4.181a25.256,25.256,0,0,0,7.892-3.074.664.664,0,0,1,.682,1.139,26.565,26.565,0,0,1-8.3,3.233A77.983,77.983,0,0,1,223.9,325.19c-19.484,0-41.27-4.658-45.354-5.572a157.122,157.122,0,0,1-8.171,27.48c-5.356,12.8-17.91,28.66-19.477,30.615l.36,7.393a8.465,8.465,0,0,1-6.36,8.593l-27.162,6.872A3.372,3.372,0,0,1,116.906,400.676Z" transform="translate(-113.698 -290.525)" fill="#423f3f"/>
      </g>
      <g id="Group_16" data-name="Group 16" transform="translate(12.984 18.308)">
        <g id="Path_218" data-name="Path 218" transform="translate(19.935 3.033)">
          <path id="Path_7698" data-name="Path 7698" d="M207.474,52.479a15.365,15.365,0,0,0-3.559,2.419l2.244,2.58A20.166,20.166,0,0,0,207.474,52.479Z" transform="translate(-203.915 -52.479)" fill="#febd01" fill-rule="evenodd"/>
        </g>
        <g id="Path_219" data-name="Path 219" transform="translate(15.195)">
          <path id="Path_7699" data-name="Path 7699" d="M196.775,45.46a15.156,15.156,0,0,0-7.135-2.116c.813.936,2.216,2.55,3.869,4.449A25.6,25.6,0,0,1,196.775,45.46Z" transform="translate(-189.64 -43.344)" fill="#febd01" fill-rule="evenodd"/>
        </g>
        <g id="Path_220" data-name="Path 220" transform="translate(23.19 3.916)">
          <path id="Path_7700" data-name="Path 7700" d="M213.72,60.411c2.058,2.364,4.1,4.708,5.662,6.487a12.665,12.665,0,0,0,.179-2.125,13.1,13.1,0,0,0-4.294-9.634A39.006,39.006,0,0,1,213.72,60.411Z" transform="translate(-213.72 -55.139)" fill="#febd01" fill-rule="evenodd"/>
        </g>
        <g id="Path_221" data-name="Path 221" transform="translate(9.356 0.022)">
          <path id="Path_7701" data-name="Path 7701" d="M172.15,55.8c1.534-1.273,2.935-2.445,4.22-3.519,1.731-1.449,3.161-2.641,4.354-3.612-2.467-2.837-4.367-5.025-4.575-5.262a15.223,15.223,0,0,0-4.1.853C172.067,46.809,172.1,51.2,172.15,55.8Z" transform="translate(-172.05 -43.409)" fill="#febd01" fill-rule="evenodd"/>
        </g>
        <g id="Path_222" data-name="Path 222" transform="translate(9.477 6.288)">
          <path id="Path_7702" data-name="Path 7702" d="M183.784,67.908c.29-.835.573-1.65.84-2.424-.949-1.091-1.892-2.176-2.785-3.2-1.29,1.051-2.774,2.291-4.372,3.629-1.514,1.267-3.187,2.666-5.051,4.208.055,4.56.126,9.135.219,12.179a15.418,15.418,0,0,0,4.821.767c.445,0,.885-.02,1.32-.056C180.713,76.742,182.469,71.688,183.784,67.908Z" transform="translate(-172.415 -62.284)" fill="#febd01" fill-rule="evenodd"/>
        </g>
        <g id="Path_223" data-name="Path 223" transform="translate(17.284 10.64)">
          <path id="Path_7703" data-name="Path 7703" d="M201.336,75.394l-.591,1.706c-1.27,3.654-2.955,8.5-4.816,14.473a14.2,14.2,0,0,0,11.188-9.556C205.624,80.311,203.509,77.887,201.336,75.394Z" transform="translate(-195.93 -75.394)" fill="#febd01" fill-rule="evenodd"/>
        </g>
        <g id="Path_224" data-name="Path 224" transform="translate(1.922 15.207)">
          <path id="Path_7704" data-name="Path 7704" d="M155.9,89.149c-1.884,1.55-3.954,3.235-6.238,5.065a14.264,14.264,0,0,0,6.429,5.516C156.011,96.944,155.948,93.086,155.9,89.149Z" transform="translate(-149.66 -89.149)" fill="#febd01" fill-rule="evenodd"/>
        </g>
        <g id="Path_225" data-name="Path 225" transform="translate(0 1.421)">
          <path id="Path_7705" data-name="Path 7705" d="M152.01,59.707c-.055-4.681-.09-9.266-.11-12.083a13.543,13.543,0,0,0-8.031,12.133,12.66,12.66,0,0,0,1.273,5.538C147.686,63.256,149.96,61.4,152.01,59.707Z" transform="translate(-143.87 -47.624)" fill="#febd01" fill-rule="evenodd"/>
        </g>
      </g>
      <g id="Group_17" data-name="Group 17" transform="translate(0 80.71)">
        <g id="Path_226" data-name="Path 226">
          <path id="Path_7706" data-name="Path 7706" d="M147,271.193c-.908-2.424-2.028-4.449-2.575-6.881-1.167-5.187-4.3-.388-4.658,5.129-.259,3.984-.631,12.91-3.989,19.066-.584,1.071-3.5,1.751-3.989-.194s1.682-1.109,2.334-4.085c2.2-10.051-3.793-10.312-2.659-21.722,0,0-5.72-2.208-10.536-1.039-.666,5.038-1.8,6.794-3.453,11.719-1.838,5.478-2.538,13.114-3.956,13.866-.93.493-3.544.573-3.826-.813-.242-1.194,1.584-2.1,1.816-3.924.755-5.923,1.615-14.674,1.59-16.963-.164-16.078-8.35-16.078-8.34-24.139,0-3.529,4.958-7.955,7-9.739a.676.676,0,0,1,1.117.452,8.893,8.893,0,0,1-.125,2.95,13.062,13.062,0,0,1,3.313,2.16,13,13,0,0,1,3.8-2.131,1.129,1.129,0,0,1,1.494,1.1,21.379,21.379,0,0,1-.559,4.445s4.4-6.593,11.407-6.723,12.692,4.894,17.755,3.547c14.2-3.775,15.987,7.264,27.685,7.264,4.759,0,7.984-7.163,7.984-7.163,1.469,1.917-2.191,10.989-9,10.989-14.267,0-15.72-7.976-21.41-7.07-3.4.541-3.994,8.338-2.654,16.893l-2.055,3.861-2.623,6.512Z" transform="translate(-104.76 -231.307)" fill="#423f3f"/>
        </g>
        <g id="Path_227" data-name="Path 227" transform="translate(0.003 23.022)">
          <path id="Path_7707" data-name="Path 7707" d="M112.65,300.653s-8.5,13.1-7.847,16.537.973,6.031,2.334,6.291,2.983-.973,2.4-2.4-2.075-3.242-1.751-4.215,5.707-6.615,5.707-6.615" transform="translate(-104.768 -300.653)" fill="#423f3f"/>
        </g>
      </g>
      <g id="Line_35" data-name="Line 35" transform="translate(126.896 32.849)">
        <path id="Path_7708" data-name="Path 7708" d="M487.65,96.6a.647.647,0,0,1-.112-.01.664.664,0,0,1-.543-.766l1.379-8.126a.664.664,0,1,1,1.309.222L488.3,96.043A.664.664,0,0,1,487.65,96.6Z" transform="translate(-486.985 -87.142)" fill="#423f3f"/>
      </g>
      <g id="Line_36" data-name="Line 36" transform="translate(141.264 30.552)">
        <path id="Path_7709" data-name="Path 7709" d="M532.475,88.814a.664.664,0,0,1-.649-.526l-1.547-7.262a.664.664,0,0,1,1.3-.277l1.547,7.262a.664.664,0,0,1-.65.8Z" transform="translate(-530.265 -80.223)" fill="#423f3f"/>
      </g>
      <g id="Path_228" data-name="Path 228" transform="translate(167.947 130.671)">
        <path id="Path_7710" data-name="Path 7710" d="M626.332,399.575c-2.127,0-4.777-1.639-6.284-2.713-4.467-3.183-9.134-8.644-9.413-12.923a.664.664,0,0,1,1.325-.086c.249,3.825,4.749,9,8.858,11.928,2.479,1.766,4.753,2.685,5.976,2.421-.136-.764-2.053-3.115-4.278-5.222a.664.664,0,0,1,.71-1.1c6.742,2.793,16.65,2.992,18.025,1.013a.478.478,0,0,0,.067-.5c-.428-1.142-4.948-3.921-15.254-6.516a.665.665,0,0,1-.487-.506s-.331-1.564-.6-2.776a.664.664,0,1,1,1.3-.285c.184.834.4,1.836.515,2.382,2.69.7,14.538,3.943,15.772,7.235a1.8,1.8,0,0,1-.219,1.721c-1.77,2.546-10.43,2.284-16.925.394.14.152.281.308.421.468,2.265,2.565,2.394,3.542,2.252,4.106a1.146,1.146,0,0,1-.857.838A3.4,3.4,0,0,1,626.332,399.575Z" transform="translate(-610.635 -381.796)" fill="#423f3f"/>
      </g>
      <g id="Path_229" data-name="Path 229" transform="translate(44.552 53.809)">
        <path id="Path_7711" data-name="Path 7711" d="M243.649,183.737a.659.659,0,0,1-.391-.128,17.1,17.1,0,0,1-2.537-2.354c-2.1-2.43-1.946-4.1-1.446-5.079,1.455-2.843,22.98-24.768,23.9-25.7a.664.664,0,1,1,.948.931c-6.2,6.308-22.53,23.163-23.662,25.374-.953,1.862,2.352,4.855,3.586,5.756a.664.664,0,0,1-.392,1.2Z" transform="translate(-238.957 -150.277)" fill="#423f3f"/>
      </g>
      <g id="Path_230" data-name="Path 230" transform="translate(44.796 76.837)">
        <path id="Path_7712" data-name="Path 7712" d="M270.212,238.624c-1.748,0-8.082-.814-14.887-11.648-2.971-4.731-6.325-5.871-8.616-5.994a7.21,7.21,0,0,0-5.834,2.244.664.664,0,0,1-1.042-.823,8.488,8.488,0,0,1,6.948-2.748c2.6.14,6.4,1.4,9.67,6.614,7.385,11.76,13.985,11.024,14.05,11.014a.664.664,0,1,1,.177,1.316A3.73,3.73,0,0,1,270.212,238.624Z" transform="translate(-239.69 -219.642)" fill="#423f3f"/>
      </g>
      <g id="Path_231" data-name="Path 231" transform="translate(62.931 63.602)">
        <path id="Path_7713" data-name="Path 7713" d="M331.248,218.932a.664.664,0,0,1-.649-.525c-2.344-10.933-7.789-26.043-10.183-31.7-1.434-3.391-3.307-5.317-5.417-5.571-2-.238-4.271,1.077-6.085,3.52-2.538,3.417-13.278,19.257-13.386,19.417a.664.664,0,0,1-1.1-.745c.108-.16,10.864-16.024,13.419-19.463,2.133-2.873,4.8-4.348,7.309-4.046,1.82.218,4.422,1.5,6.482,6.372,2.411,5.7,7.9,20.923,10.258,31.942a.664.664,0,0,1-.51.789A.651.651,0,0,1,331.248,218.932Z" transform="translate(-294.315 -179.775)" fill="#423f3f"/>
      </g>
      <g id="Path_232" data-name="Path 232" transform="translate(37.238 127.997)">
        <path id="Path_7714" data-name="Path 7714" d="M241.154,394.649a19.046,19.046,0,0,1-4.184-.514c-8.643-1.952-19.376-11.717-19.828-12.131a.664.664,0,0,1,.9-.979c.109.1,10.926,9.942,19.224,11.815,7.659,1.732,9.518-1.755,9.783-2.377l-.729-16.03a.664.664,0,0,1,1.327-.06l.735,16.166a.67.67,0,0,1-.03.229C248.289,390.956,247.049,394.649,241.154,394.649Z" transform="translate(-216.926 -373.739)" fill="#423f3f"/>
      </g>
      <g id="Path_233" data-name="Path 233" transform="translate(56.328 113.483)">
        <path id="Path_7715" data-name="Path 7715" d="M275.526,364.947a.664.664,0,0,1-.662-.616c-.209-2.921-1.9-28.668,3.156-33.04,2.895-2.5,10.276-.874,19.622,1.19,7.964,1.758,16.981,3.754,25.347,3.706,11.819-.065,24.714-4.122,24.843-4.164a.664.664,0,0,1,.4,1.266c-.13.041-13.213,4.16-25.238,4.226h-.288c-8.424,0-17.412-1.984-25.353-3.738-8.626-1.9-16.077-3.55-18.467-1.482-3.852,3.333-3.255,24.186-2.7,31.941a.664.664,0,0,1-.615.71Z" transform="translate(-274.426 -330.022)" fill="#423f3f"/>
      </g>
      <g id="Path_234" data-name="Path 234" transform="translate(89.713 37.812)">
        <path id="Path_7716" data-name="Path 7716" d="M376.985,114.232c3.926,3.586,7.742,9.258,11.216,16.082,8.575,16.835,18.021,36.32,18.021,36.32s4.839.148,10.893.3c.013-.073.028-.146.041-.219,2.676-13.832,4.621-32.134,4.641-32.318a1.329,1.329,0,1,1,2.643.279h0c-.02.184-1.977,18.6-4.674,32.544a151.994,151.994,0,0,0-2.356,26.4c12.529,4.714,27.087-.314,27.087-.314l-3.732-41.34,11.364,46.811,19.659-2.058s-7.46-75.014-28.443-87.84a34.85,34.85,0,0,0-13.262-4.781s-9.654,5.149-13.334,4.241c-2.224-.548-2.1-3.9-2.1-3.9-12.078,1.9-25.824,7.475-37.6,9.849" transform="translate(-376.321 -103.429)" fill="#423f3f" fill-rule="evenodd"/>
        <path id="Path_7717" data-name="Path 7717" d="M450.793,198.1a.664.664,0,0,1-.644-.507L440.9,159.478l2.927,32.428a.664.664,0,0,1-.445.687c-.6.208-14.929,5.052-27.538.308a.664.664,0,0,1-.43-.621,151.335,151.335,0,0,1,2.367-26.523c2.639-13.643,4.584-31.717,4.666-32.48a.665.665,0,1,0-1.321-.147c-.082.769-2.021,18.784-4.65,32.374l-.04.212a.678.678,0,0,1-.67.545c-5.987-.149-10.848-.3-10.9-.3a.665.665,0,0,1-.577-.374c-.094-.195-9.541-19.672-18.015-36.308-3.65-7.169-7.375-12.516-11.073-15.893a.664.664,0,0,1,.594-1.138c5.221-1.067,10.722-2.725,16.542-4.479,6.982-2.1,14.2-4.28,20.871-5.331a.664.664,0,0,1,.767.68c0,.027-.073,2.824,1.6,3.235,2.813.694,10.24-2.783,12.863-4.182a.665.665,0,0,1,.407-.071,35.318,35.318,0,0,1,13.514,4.872c8.862,5.417,16.4,21.955,22.392,49.154a383.49,383.49,0,0,1,6.365,39.187.664.664,0,0,1-.591.726L450.863,198.1C450.839,198.1,450.816,198.1,450.793,198.1ZM439.43,149.961a.664.664,0,0,1,.644.508L451.3,196.716l18.421-1.929c-.8-7.413-8.629-74.806-28.06-86.683a33.99,33.99,0,0,0-12.8-4.659c-1.441.752-9.982,5.091-13.612,4.2-1.973-.486-2.458-2.595-2.573-3.773a170.937,170.937,0,0,0-19.961,5.171c-5.238,1.579-10.642,3.207-15.651,4.3,3.492,3.5,6.982,8.649,10.388,15.34,7.843,15.4,16.516,33.222,17.85,35.969,1.235.037,5.18.153,9.925.273,2.586-13.5,4.487-31.17,4.568-31.921a1.993,1.993,0,1,1,3.964.411c-.083.774-2.033,18.9-4.683,32.6a149.528,149.528,0,0,0-2.343,25.807c10.792,3.85,23.121.473,25.713-.321l-3.684-40.809a.664.664,0,0,1,.553-.715A.684.684,0,0,1,439.43,149.961Z" transform="translate(-374.984 -102.093)" fill="#423f3f"/>
      </g>
      <g id="Path_235" data-name="Path 235" transform="translate(64.344 171.537)">
        <path id="Path_7718" data-name="Path 7718" d="M338.929,506.215H299.234a.664.664,0,1,1,0-1.328h39.695a.664.664,0,0,1,0,1.328Z" transform="translate(-298.57 -504.887)" fill="#423f3f"/>
      </g>
      <g id="Line_37" data-name="Line 37" transform="translate(89.98 156.554)">
        <path id="Path_7719" data-name="Path 7719" d="M376.454,476.068a.664.664,0,0,1-.664-.664V460.421a.664.664,0,0,1,1.328,0V475.4A.664.664,0,0,1,376.454,476.068Z" transform="translate(-375.79 -459.757)" fill="#423f3f"/>
      </g>
      <g id="Line_38" data-name="Line 38" transform="translate(70.022 171.537)">
        <path id="Path_7720" data-name="Path 7720" d="M316.339,521.2a.664.664,0,0,1-.664-.664V505.551a.664.664,0,0,1,1.328,0v14.983A.664.664,0,0,1,316.339,521.2Z" transform="translate(-315.675 -504.887)" fill="#423f3f"/>
      </g>
      <g id="Path_236" data-name="Path 236" transform="translate(128.249 153.412)">
        <path id="Path_7721" data-name="Path 7721" d="M516.823,451.621h-25.1a.664.664,0,1,1,0-1.328h25.1a.664.664,0,1,1,0,1.328Z" transform="translate(-491.061 -450.293)" fill="#423f3f"/>
      </g>
      <g id="Line_39" data-name="Line 39" transform="translate(140.508 153.412)">
        <path id="Path_7722" data-name="Path 7722" d="M528.649,466.6a.664.664,0,0,1-.664-.664V450.957a.664.664,0,1,1,1.328,0v14.982A.664.664,0,0,1,528.649,466.6Z" transform="translate(-527.985 -450.293)" fill="#423f3f"/>
      </g>
    </g>
    <g id="hand" transform="translate(116.85 -60.854)">
      <g id="Path_237" data-name="Path 237" transform="translate(10.945 16.366)">
        <path id="Path_7723" data-name="Path 7723" d="M303.577,8.044a.686.686,0,0,1-.15-.017.664.664,0,0,1-.5-.8c.5-2.149,1.438-8.174-.134-10.229-1.312-1.713-5.824-4.275-7.7-4.091-.283.028-.384.111-.426.166.112.808,3.177,3.54,6.77,6.028a.664.664,0,0,1,.168.924.664.664,0,0,1-.924.168c-.02-.014-1.979-1.372-3.822-2.9-3.6-2.97-3.762-4.048-3.408-4.771a1.743,1.743,0,0,1,1.511-.941c2.363-.234,7.31,2.547,8.887,4.6.978,1.279,1.332,3.594,1.052,6.884a35.232,35.232,0,0,1-.678,4.451A.664.664,0,0,1,303.577,8.044Z" transform="translate(-293.324 8.424)" fill="#423f3f"/>
      </g>
      <g id="Line_40" data-name="Line 40" transform="translate(6.461 29.915)">
        <path id="Path_7724" data-name="Path 7724" d="M284.537,41.077a.665.665,0,0,1-.582-.344l-4.054-7.36a.664.664,0,1,1,1.163-.641l4.054,7.36a.664.664,0,0,1-.581.984Z" transform="translate(-279.818 -32.389)" fill="#423f3f"/>
      </g>
      <g id="Path_238" data-name="Path 238" transform="translate(0 0)">
        <path id="Path_7725" data-name="Path 7725" d="M267.116-26.447a3,3,0,0,1-2.954-2.523l-3.768-23.709a3,3,0,0,1,2.485-3.426l9.922-1.577a3,3,0,0,1,3.426,2.485L278.8-38.976a.664.664,0,0,1-.551.76.663.663,0,0,1-.76-.551l-2.578-16.222a1.667,1.667,0,0,0-1.906-1.382l-9.922,1.577a1.668,1.668,0,0,0-1.382,1.906l3.768,23.709a1.668,1.668,0,0,0,1.906,1.382l9.922-1.577a1.668,1.668,0,0,0,1.382-1.906l-.3-1.9a.664.664,0,0,1,.551-.761.663.663,0,0,1,.76.551l.3,1.9a3,3,0,0,1-2.485,3.426l-9.922,1.577A2.994,2.994,0,0,1,267.116-26.447Z" transform="translate(-260.356 57.72)" fill="#423f3f"/>
      </g>
      <g id="Line_41" data-name="Line 41" transform="translate(4.395 7.595)">
        <path id="Path_7726" data-name="Path 7726" d="M274.257-32.338a.664.664,0,0,1-.655-.56.664.664,0,0,1,.551-.76l7.4-1.175a.663.663,0,0,1,.76.551.664.664,0,0,1-.551.76l-7.4,1.175A.663.663,0,0,1,274.257-32.338Z" transform="translate(-273.594 34.842)" fill="#423f3f"/>
      </g>
      <g id="Line_42" data-name="Line 42" transform="translate(6.078 10.532)">
        <path id="Path_7727" data-name="Path 7727" d="M279.327-23.89a.664.664,0,0,1-.655-.56.664.664,0,0,1,.551-.76l4.9-.779a.663.663,0,0,1,.76.552.664.664,0,0,1-.551.76l-4.9.779A.664.664,0,0,1,279.327-23.89Z" transform="translate(-278.664 25.997)" fill="#423f3f"/>
      </g>
      <g id="Path_239" data-name="Path 239" transform="translate(7.95 30.098)">
        <path id="Path_7728" data-name="Path 7728" d="M316.383,68.06,301.189,34.939,286.3,43.514s3.924,16.138,8.816,30.442c1.1-1.56,2.2-3.069,3.278-4.508C304.094,61.88,310.369,62.529,316.383,68.06Z" transform="translate(-285.64 -34.275)" fill="#423f3f"/>
        <path id="Path_7729" data-name="Path 7729" d="M293.784,73.284a.652.652,0,0,1-.095-.007.664.664,0,0,1-.534-.443c-4.845-14.168-8.794-30.338-8.833-30.5a.664.664,0,0,1,.314-.732l14.885-8.575a.663.663,0,0,1,.935.3L315.65,66.447a.664.664,0,0,1-1.053.766c-3.181-2.926-6.244-4.276-9.109-4.015-2.776.253-5.432,2.041-7.9,5.313-1.034,1.375-2.1,2.845-3.267,4.492A.665.665,0,0,1,293.784,73.284ZM285.732,42.5c.671,2.7,4.094,16.254,8.264,28.672.885-1.238,1.721-2.379,2.536-3.463,2.7-3.585,5.67-5.549,8.836-5.837a11.749,11.749,0,0,1,7.885,2.531l-13.7-29.864Z" transform="translate(-284.304 -32.938)" fill="#423f3f"/>
      </g>
    </g>
  </g>
</svg>
