<svg xmlns="http://www.w3.org/2000/svg" width="129" height="40" viewBox="0 0 129 40">
  <g id="Group_12056" data-name="Group 12056" transform="translate(-120 -9426)">
    <g id="Group_10032" data-name="Group 10032" transform="translate(120 9426)">
      <rect id="Rectangle_4472" data-name="Rectangle 4472" width="22.878" height="22.934" rx="11.439" transform="translate(0 8.533)" fill="#febd01"/>
      <path id="Path_7621" data-name="Path 7621" d="M887.653,972.5a.71.71,0,0,1,.7.808,6.158,6.158,0,0,1-12.214,0,.71.71,0,0,1,.7-.808Z" transform="translate(-870.806 -952.5)" fill="#fff"/>
      <path id="Path_7622" data-name="Path 7622" d="M882.65,916.824a.351.351,0,0,0-.5,0l-2.738,2.744a1.056,1.056,0,0,1-1.494,0l-2.986-2.994h0l-.447-.448a1.054,1.054,0,0,0-1.493,0l-.447.448h0l-2.986,2.993a1.056,1.056,0,0,1-1.494,0l-2.738-2.744a.351.351,0,0,0-.5,0l-1.991,2a.354.354,0,0,0,0,.5l2.738,2.745a4.574,4.574,0,0,0,6.471,0l1.692-1.7,1.692,1.7a4.574,4.574,0,0,0,6.47,0l2.738-2.745a.354.354,0,0,0,0-.5Z" transform="translate(-862.125 -915.816)" fill="#f9718e"/>
      <path id="Path_7623" data-name="Path 7623" d="M863.83,1008.686a.351.351,0,0,1,.5,0l2.738,2.745a1.056,1.056,0,0,0,1.493,0l2.987-2.994h0l.447-.448a1.054,1.054,0,0,1,1.493,0l.448.448h0l2.986,2.994a1.056,1.056,0,0,0,1.494,0l2.738-2.745a.352.352,0,0,1,.5,0l1.991,2a.355.355,0,0,1,0,.5l-2.738,2.745a4.573,4.573,0,0,1-6.47,0l-1.692-1.7-1.692,1.7a4.573,4.573,0,0,1-6.47,0l-2.738-2.744a.354.354,0,0,1,0-.5Z" transform="translate(-861.477 -975.267)" fill="#febd01"/>
    </g>
    <g id="Group_10033" data-name="Group 10033" transform="translate(155.709 9434.54)">
      <path id="Path_7624" data-name="Path 7624" d="M979.059,957.664,976.6,965.5l-2.478-7.841h-3.017l-2.456,7.855-2.456-7.855h-3.736l4.681,13.889h2.92l2.576-8.513,2.656,8.513h2.9l4.555-13.889Z" transform="translate(-962.457 -951.439)" fill="#f9718e"/>
      <path id="Path_7625" data-name="Path 7625" d="M1026.5,956.944c-3.82,0-6.7,3.089-6.7,7.186s2.881,7.211,6.7,7.211,6.678-3.1,6.678-7.211S1030.309,956.944,1026.5,956.944Zm-.023,3.573a3.385,3.385,0,0,1,3.286,3.612,3.306,3.306,0,1,1-6.573,0A3.385,3.385,0,0,1,1026.479,960.517Z" transform="translate(-999.618 -950.973)" fill="#f9718e"/>
      <path id="Path_7626" data-name="Path 7626" d="M1073.516,957.664l-2.459,7.841-2.478-7.841h-3.017l-2.456,7.855-2.456-7.855h-3.736l4.681,13.889h2.921l2.576-8.513,2.656,8.513h2.9l4.555-13.889Z" transform="translate(-1023.668 -951.439)" fill="#f9718e"/>
      <path id="Path_7627" data-name="Path 7627" d="M1123.477,966.241a3.015,3.015,0,0,1-2.587,1.551,3.412,3.412,0,0,1-3.172-3.688,3.355,3.355,0,0,1,3.172-3.587,2.95,2.95,0,0,1,2.626,1.589l.242.48,3-1.577-.213-.458a6.13,6.13,0,0,0-5.588-3.608,6.785,6.785,0,0,0-6.7,7.16c0,4.126,2.871,7.237,6.678,7.237a6.111,6.111,0,0,0,5.633-3.606l.225-.479-3.08-1.456Z" transform="translate(-1060.829 -950.973)" fill="#f9718e"/>
      <path id="Path_7628" data-name="Path 7628" d="M1160.335,945.993A4.922,4.922,0,0,0,1157,947.2v-7.179h-3.53v20.113H1157V952.67a2.658,2.658,0,0,1,2.663-3c1.351,0,2.224,1.069,2.224,2.723v7.745h3.507V952.39C1165.394,948.5,1163.408,945.993,1160.335,945.993Z" transform="translate(-1086.241 -940.022)" fill="#f9718e"/>
      <path id="Path_7629" data-name="Path 7629" d="M1198.643,957.664l-3.242,8.464-2.932-8.464h-3.76l4.786,13.453-.92,2.374c-.356.877-.7,1.043-1.221,1.043h-2.263v3.625h2.331c2.875,0,3.719-1.7,4.677-4.276l6.267-16.218Z" transform="translate(-1109.075 -951.439)" fill="#f9718e"/>
    </g>
  </g>
</svg>
